<?xml version="1.0" standalone="no"?>
<!DOCTYPE svg PUBLIC "-//W3C//DTD SVG 20010904//EN"
 "http://www.w3.org/TR/2001/REC-SVG-20010904/DTD/svg10.dtd">
<svg version="1.0" xmlns="http://www.w3.org/2000/svg"
 width="224.000000pt" height="224.000000pt" viewBox="0 0 224.000000 224.000000"
 preserveAspectRatio="xMidYMid meet">

<g transform="translate(0.000000,224.000000) scale(0.100000,-0.100000)"
fill="#FFFFFF" stroke="none">
<path d="M1150 1742 c-64 -21 -95 -107 -87 -241 3 -53 9 -106 12 -117 5 -17
-7 -37 -60 -95 -89 -99 -119 -163 -118 -248 0 -73 16 -120 58 -169 44 -52 107
-84 181 -90 73 -5 78 -10 88 -87 12 -91 -28 -165 -89 -165 -45 0 -48 9 -14 37
53 45 27 126 -40 126 -78 0 -111 -100 -52 -157 53 -51 148 -51 201 -1 40 39
45 74 24 177 l-18 89 46 42 c73 67 83 143 32 233 -25 45 -73 74 -122 74 -25 0
-32 6 -41 31 -19 55 -13 88 24 139 56 76 88 171 89 267 1 68 -2 86 -20 109
-22 31 -70 54 -94 46z m56 -107 c12 -18 14 -35 9 -62 -8 -47 -50 -124 -81
-154 l-24 -22 0 70 c0 38 6 91 14 117 24 79 52 97 82 51z m-96 -450 c11 -33
10 -37 -14 -56 -39 -31 -57 -74 -57 -136 0 -64 19 -99 64 -118 43 -18 46 -3 7
41 -22 26 -29 41 -24 57 7 23 43 67 54 67 9 0 50 -202 43 -212 -8 -14 -78 -8
-119 11 -78 35 -117 117 -95 198 6 25 21 60 33 77 35 49 82 106 90 106 3 0 12
-16 18 -35z m135 -159 c34 -34 41 -86 19 -133 -11 -21 -23 -37 -29 -36 -10 2
-27 65 -39 147 -6 38 -5 46 9 46 9 0 27 -11 40 -24z"/>
</g>
</svg>
